<svg width="42" height="15" viewBox="0 0 42 15" fill="none" xmlns="http://www.w3.org/2000/svg">
<path d="M9.83766 9.63845H4.22987L3.24718 11.9243C3.00506 12.4868 2.884 12.907 2.884 13.1847C2.884 13.4055 2.98726 13.6013 3.19377 13.7722C3.4074 13.936 3.86314 14.0428 4.561 14.0926V14.4878H0V14.0926C0.605285 13.9858 0.99694 13.847 1.17496 13.676C1.53814 13.3342 1.94047 12.6399 2.38197 11.5932L7.47705 -2.70965e-06L8.06889 5.95818e-05L12.8926 11.7213C13.2985 12.6898 13.6652 13.32 13.9928 13.612C14.3274 13.8968 14.7903 14.057 15.3814 14.0926V14.4878H9.66675V14.0926C10.2436 14.0641 10.6316 13.968 10.831 13.8042C11.0375 13.6404 11.1408 13.4411 11.1408 13.2061C11.1408 12.8927 10.9984 12.3978 10.7135 11.7213L9.83766 9.63845ZM9.53858 8.84801L7.08183 2.99455L4.561 8.84801H9.53858Z" fill="white"/>
<path d="M8.07806 0.398878V0.00366211H14.284V0.398878H13.7606C13.1696 0.398878 12.7388 0.573342 12.4682 0.922271C12.2973 1.15014 12.2118 1.69846 12.2118 2.56722V9.64905C12.2118 10.7386 12.0907 11.6216 11.8486 12.2981C11.6136 12.9746 11.2042 13.5656 10.6203 14.0712C10.0363 14.5697 9.33135 14.8189 8.50532 14.8189C7.83594 14.8189 7.30899 14.6551 6.92446 14.3276C6.53992 13.9929 6.34766 13.6119 6.34766 13.1846C6.34766 12.8357 6.43667 12.5722 6.61469 12.3942C6.84969 12.1734 7.12385 12.0631 7.43717 12.0631C7.66504 12.0631 7.86799 12.1378 8.04601 12.2874C8.23116 12.4369 8.46259 12.8357 8.74031 13.4837C8.90409 13.8682 9.11416 14.0605 9.37052 14.0605C9.56279 14.0605 9.74081 13.943 9.9046 13.708C10.0755 13.473 10.161 13.0565 10.161 12.4583V2.56722C10.161 1.83376 10.1147 1.34953 10.0221 1.11454C9.95088 0.936513 9.80134 0.783411 9.57347 0.655233C9.26727 0.48433 8.94326 0.398878 8.60145 0.398878H8.07806Z" fill="white"/>
<path d="M20.4052 14.0926V14.4878H14.1992V14.0926H14.7119C15.3101 14.0926 15.7445 13.9181 16.0151 13.5692C16.186 13.3413 16.2714 12.793 16.2714 11.9242V2.56722C16.2714 1.83376 16.2251 1.34953 16.1326 1.11454C16.0614 0.936513 15.9154 0.783411 15.6946 0.655233C15.3813 0.48433 15.0537 0.398878 14.7119 0.398878H14.1992V0.00366211H20.4052V0.398878H19.8818C19.2907 0.398878 18.8599 0.573342 18.5893 0.922271C18.4113 1.15014 18.3223 1.69846 18.3223 2.56722V11.9242C18.3223 12.6577 18.3686 13.1419 18.4611 13.3769C18.5323 13.5549 18.6819 13.708 18.9098 13.8362C19.216 14.0071 19.54 14.0926 19.8818 14.0926H20.4052Z" fill="white"/>
<path d="M24.3103 3.99442C24.3503 4.09776 24.3936 4.16609 24.4403 4.19942C24.4869 4.22942 24.5719 4.24442 24.6953 4.24442V4.40942H23.3453V4.24442H23.5703C23.6169 4.24442 23.6519 4.23276 23.6753 4.20942C23.6986 4.18609 23.7103 4.15609 23.7103 4.11942C23.7103 4.09276 23.7053 4.06442 23.6953 4.03442L23.4053 3.19442H22.3853L22.1053 4.04942C22.0953 4.08276 22.0903 4.11276 22.0903 4.13942C22.0903 4.20942 22.1353 4.24442 22.2253 4.24442H22.4703V4.40942H21.4303V4.24442C21.5603 4.24442 21.6503 4.22609 21.7003 4.18942C21.7503 4.14942 21.7953 4.07609 21.8353 3.96942L22.8753 1.10942H23.3003L24.3103 3.99442ZM23.3503 3.02942L22.8953 1.69942H22.8803L22.4403 3.02942H23.3503ZM25.9 4.46442C25.81 4.46442 25.735 4.45609 25.675 4.43942C25.6183 4.42609 25.55 4.40609 25.47 4.37942C25.3933 4.34609 25.33 4.32942 25.28 4.32942C25.24 4.32942 25.2083 4.33776 25.185 4.35442C25.165 4.36776 25.145 4.39109 25.125 4.42442H25.03L24.985 3.59942H25.11C25.1733 3.79942 25.2733 3.96109 25.41 4.08442C25.55 4.20776 25.7033 4.26942 25.87 4.26942C25.99 4.26942 26.0833 4.23776 26.15 4.17442C26.2167 4.10776 26.25 4.01942 26.25 3.90942C26.25 3.83942 26.235 3.78276 26.205 3.73942C26.175 3.69276 26.13 3.65109 26.07 3.61442C26.01 3.57776 25.9117 3.52609 25.775 3.45942L25.675 3.40942C25.445 3.29609 25.285 3.19109 25.195 3.09442C25.1083 2.99442 25.065 2.86609 25.065 2.70942C25.065 2.48609 25.1383 2.31442 25.285 2.19442C25.4317 2.07109 25.6317 2.00942 25.885 2.00942C26.0217 2.00942 26.1517 2.03109 26.275 2.07442C26.3483 2.09442 26.3983 2.10442 26.425 2.10442C26.4617 2.10442 26.4867 2.09776 26.5 2.08442C26.5133 2.07109 26.5217 2.05776 26.525 2.04442C26.5317 2.02776 26.535 2.01776 26.535 2.01442H26.64L26.68 2.74942H26.555C26.515 2.58942 26.4367 2.45942 26.32 2.35942C26.2067 2.25942 26.0767 2.20942 25.93 2.20942C25.8267 2.20942 25.74 2.23442 25.67 2.28442C25.6033 2.33442 25.57 2.40109 25.57 2.48442C25.57 2.63442 25.6833 2.76109 25.91 2.86442L26.065 2.93442C26.225 3.00776 26.3533 3.07609 26.45 3.13942C26.5467 3.20276 26.6233 3.28109 26.68 3.37442C26.7367 3.46442 26.765 3.57609 26.765 3.70942C26.765 3.93609 26.685 4.11942 26.525 4.25942C26.3683 4.39609 26.16 4.46442 25.9 4.46442ZM29.3168 3.26442H27.8168C27.8268 3.55109 27.8818 3.76942 27.9818 3.91942C28.0818 4.06942 28.2501 4.14442 28.4868 4.14442C28.6501 4.14442 28.7851 4.10776 28.8918 4.03442C28.9985 3.95776 29.0835 3.84442 29.1468 3.69442L29.3018 3.78442C29.2185 3.98776 29.1018 4.15109 28.9518 4.27442C28.8018 4.39776 28.5768 4.45942 28.2768 4.45942C27.5601 4.45942 27.2018 4.05442 27.2018 3.24442C27.2018 2.83442 27.2918 2.52609 27.4718 2.31942C27.6551 2.11276 27.9218 2.00942 28.2718 2.00942C28.6385 2.00942 28.9035 2.11609 29.0668 2.32942C29.2335 2.54276 29.3168 2.83276 29.3168 3.19942V3.26442ZM28.7068 3.06442C28.7068 2.76776 28.6801 2.55109 28.6268 2.41442C28.5735 2.27776 28.4618 2.20942 28.2918 2.20942C28.1285 2.20942 28.0085 2.27776 27.9318 2.41442C27.8585 2.55109 27.8185 2.76776 27.8118 3.06442H28.7068ZM30.6998 4.46442C30.6098 4.46442 30.5348 4.45609 30.4748 4.43942C30.4181 4.42609 30.3498 4.40609 30.2698 4.37942C30.1931 4.34609 30.1298 4.32942 30.0798 4.32942C30.0398 4.32942 30.0081 4.33776 29.9848 4.35442C29.9648 4.36776 29.9448 4.39109 29.9248 4.42442H29.8298L29.7848 3.59942H29.9098C29.9731 3.79942 30.0731 3.96109 30.2098 4.08442C30.3498 4.20776 30.5031 4.26942 30.6698 4.26942C30.7898 4.26942 30.8831 4.23776 30.9498 4.17442C31.0165 4.10776 31.0498 4.01942 31.0498 3.90942C31.0498 3.83942 31.0348 3.78276 31.0048 3.73942C30.9748 3.69276 30.9298 3.65109 30.8698 3.61442C30.8098 3.57776 30.7115 3.52609 30.5748 3.45942L30.4748 3.40942C30.2448 3.29609 30.0848 3.19109 29.9948 3.09442C29.9081 2.99442 29.8648 2.86609 29.8648 2.70942C29.8648 2.48609 29.9381 2.31442 30.0848 2.19442C30.2315 2.07109 30.4315 2.00942 30.6848 2.00942C30.8215 2.00942 30.9515 2.03109 31.0748 2.07442C31.1481 2.09442 31.1981 2.10442 31.2248 2.10442C31.2615 2.10442 31.2865 2.09776 31.2998 2.08442C31.3131 2.07109 31.3215 2.05776 31.3248 2.04442C31.3315 2.02776 31.3348 2.01776 31.3348 2.01442H31.4398L31.4798 2.74942H31.3548C31.3148 2.58942 31.2365 2.45942 31.1198 2.35942C31.0065 2.25942 30.8765 2.20942 30.7298 2.20942C30.6265 2.20942 30.5398 2.23442 30.4698 2.28442C30.4031 2.33442 30.3698 2.40109 30.3698 2.48442C30.3698 2.63442 30.4831 2.76109 30.7098 2.86442L30.8648 2.93442C31.0248 3.00776 31.1531 3.07609 31.2498 3.13942C31.3465 3.20276 31.4231 3.28109 31.4798 3.37442C31.5365 3.46442 31.5648 3.57609 31.5648 3.70942C31.5648 3.93609 31.4848 4.11942 31.3248 4.25942C31.1681 4.39609 30.9598 4.46442 30.6998 4.46442ZM33.1566 4.45942C32.7566 4.45942 32.4616 4.36109 32.2716 4.16442C32.0849 3.96776 31.9916 3.65942 31.9916 3.23942C31.9916 2.81942 32.0866 2.50942 32.2766 2.30942C32.4666 2.10609 32.7633 2.00442 33.1666 2.00442C33.5633 2.00442 33.8549 2.10442 34.0416 2.30442C34.2283 2.50109 34.3216 2.80942 34.3216 3.22942C34.3216 3.65276 34.2266 3.96442 34.0366 4.16442C33.8499 4.36109 33.5566 4.45942 33.1566 4.45942ZM33.1566 4.25942C33.3499 4.25942 33.4899 4.17776 33.5766 4.01442C33.6633 3.85109 33.7066 3.59942 33.7066 3.25942C33.7066 2.89609 33.6616 2.62942 33.5716 2.45942C33.4816 2.28942 33.3416 2.20442 33.1516 2.20442C32.9616 2.20442 32.8216 2.28776 32.7316 2.45442C32.6449 2.61776 32.6016 2.87776 32.6016 3.23442C32.6016 3.59109 32.6449 3.85109 32.7316 4.01442C32.8216 4.17776 32.9633 4.25942 33.1566 4.25942ZM36.2299 2.00442C36.3733 2.00442 36.4783 2.04609 36.5449 2.12942C36.6149 2.20942 36.6499 2.30776 36.6499 2.42442C36.6499 2.53442 36.6216 2.62109 36.5649 2.68442C36.5083 2.74442 36.4283 2.77442 36.3249 2.77442C36.2349 2.77442 36.1633 2.75109 36.1099 2.70442C36.0599 2.65776 36.0349 2.59276 36.0349 2.50942C36.0349 2.45942 36.0416 2.41942 36.0549 2.38942C36.0716 2.35942 36.0916 2.33109 36.1149 2.30442C36.1416 2.27776 36.1549 2.25942 36.1549 2.24942C36.1549 2.23609 36.1499 2.22442 36.1399 2.21442C36.1299 2.20442 36.1133 2.19942 36.0899 2.19942C36.0299 2.19942 35.9633 2.23776 35.8899 2.31442C35.8166 2.39109 35.7533 2.49442 35.6999 2.62442C35.6466 2.75109 35.6199 2.88776 35.6199 3.03442V3.99442C35.6199 4.06776 35.6283 4.12109 35.6449 4.15442C35.6649 4.18776 35.7033 4.21109 35.7599 4.22442C35.8166 4.23776 35.9083 4.24442 36.0349 4.24442V4.40942H34.7149V4.24442C34.8149 4.24442 34.8866 4.23776 34.9299 4.22442C34.9733 4.20776 35.0016 4.18276 35.0149 4.14942C35.0283 4.11609 35.0349 4.06442 35.0349 3.99442V2.54942C35.0349 2.45942 35.0249 2.39942 35.0049 2.36942C34.9849 2.33609 34.9483 2.31942 34.8949 2.31942H34.7449V2.14942L35.4649 2.03442H35.6049V2.46942H35.6149C35.7616 2.15942 35.9666 2.00442 36.2299 2.00442ZM36.8531 4.24442C36.9531 4.24442 37.0248 4.23776 37.0681 4.22442C37.1115 4.20776 37.1398 4.18276 37.1531 4.14942C37.1665 4.11609 37.1731 4.06442 37.1731 3.99442V2.54942C37.1731 2.45609 37.1631 2.39442 37.1431 2.36442C37.1265 2.33442 37.0898 2.31942 37.0331 2.31942H36.8831V2.14942L37.6131 2.03442H37.7581V3.99442C37.7581 4.06776 37.7648 4.12109 37.7781 4.15442C37.7915 4.18776 37.8198 4.21109 37.8631 4.22442C37.9065 4.23776 37.9781 4.24442 38.0781 4.24442V4.40942H36.8531V4.24442ZM37.3881 0.754424C37.4181 0.687757 37.4515 0.64109 37.4881 0.614424C37.5281 0.587757 37.5731 0.574424 37.6231 0.574424C37.6865 0.574424 37.7415 0.59609 37.7881 0.639424C37.8348 0.682757 37.8581 0.734424 37.8581 0.794424C37.8581 0.83109 37.8498 0.86609 37.8331 0.899424C37.8198 0.929424 37.7881 0.974424 37.7381 1.03442L37.2181 1.59942H36.9981L37.3881 0.754424ZM40.6784 4.30442C40.6051 4.34776 40.5251 4.38442 40.4384 4.41442C40.3551 4.44442 40.2501 4.45942 40.1234 4.45942C39.9868 4.45942 39.8884 4.43776 39.8284 4.39442C39.7718 4.35109 39.7434 4.26109 39.7434 4.12442C39.6301 4.22442 39.5134 4.30609 39.3934 4.36942C39.2734 4.42942 39.1401 4.45942 38.9934 4.45942C38.8134 4.45942 38.6651 4.41609 38.5484 4.32942C38.4318 4.24276 38.3734 4.11942 38.3734 3.95942C38.3734 3.73276 38.4934 3.53442 38.7334 3.36442C38.9768 3.19109 39.3134 3.06609 39.7434 2.98942V2.68442C39.7401 2.54442 39.7034 2.43942 39.6334 2.36942C39.5668 2.29942 39.4484 2.26442 39.2784 2.26442C39.1851 2.26442 39.1034 2.27942 39.0334 2.30942C38.9668 2.33609 38.9334 2.36442 38.9334 2.39442C38.9334 2.42442 38.9534 2.45942 38.9934 2.49942C39.0201 2.52942 39.0401 2.55609 39.0534 2.57942C39.0668 2.60276 39.0734 2.63442 39.0734 2.67442C39.0734 2.75776 39.0484 2.82442 38.9984 2.87442C38.9484 2.92109 38.8818 2.94442 38.7984 2.94442C38.7118 2.94442 38.6418 2.91776 38.5884 2.86442C38.5351 2.81109 38.5084 2.74109 38.5084 2.65442C38.5084 2.54442 38.5484 2.44109 38.6284 2.34442C38.7118 2.24776 38.8301 2.17109 38.9834 2.11442C39.1401 2.05442 39.3234 2.02442 39.5334 2.02442C39.8001 2.02442 39.9951 2.07942 40.1184 2.18942C40.2451 2.29942 40.3084 2.48942 40.3084 2.75942V3.86942C40.3084 3.99942 40.3218 4.08942 40.3484 4.13942C40.3784 4.18609 40.4251 4.20942 40.4884 4.20942C40.5218 4.20942 40.5518 4.20442 40.5784 4.19442C40.6051 4.18109 40.6218 4.17276 40.6284 4.16942L40.6784 4.30442ZM38.9384 3.78442C38.9384 3.99442 39.0618 4.09942 39.3084 4.09942C39.4451 4.09942 39.5901 4.03776 39.7434 3.91442V3.18442C39.4668 3.24442 39.2634 3.32276 39.1334 3.41942C39.0034 3.51276 38.9384 3.63442 38.9384 3.78442ZM21.7203 9.45942C21.5603 9.45942 21.4319 9.41942 21.3353 9.33942C21.2386 9.25942 21.1903 9.16609 21.1903 9.05942C21.1903 8.93609 21.2203 8.84442 21.2803 8.78442C21.3369 8.72442 21.4153 8.69442 21.5153 8.69442C21.5886 8.69442 21.6553 8.72109 21.7153 8.77442C21.7753 8.82776 21.8053 8.89442 21.8053 8.97442C21.8053 9.03109 21.7953 9.07776 21.7753 9.11442C21.7586 9.15442 21.7503 9.18109 21.7503 9.19442C21.7503 9.20776 21.7636 9.21942 21.7903 9.22942C21.8169 9.24276 21.8436 9.24942 21.8703 9.24942C22.0469 9.24942 22.1636 9.18442 22.2203 9.05442C22.2803 8.92776 22.3103 8.72276 22.3103 8.43942V5.56442C22.3103 5.47776 22.3019 5.41609 22.2853 5.37942C22.2686 5.33942 22.2336 5.31276 22.1803 5.29942C22.1303 5.28276 22.0436 5.27442 21.9203 5.27442V5.10942H23.3153V5.27442C23.1886 5.27442 23.0986 5.28276 23.0453 5.29942C22.9919 5.31276 22.9569 5.33942 22.9403 5.37942C22.9269 5.41609 22.9203 5.47776 22.9203 5.56442V7.89442C22.9203 8.25442 22.8853 8.54609 22.8153 8.76942C22.7453 8.99609 22.6219 9.16776 22.4453 9.28442C22.2719 9.40109 22.0303 9.45942 21.7203 9.45942ZM26.0104 7.99442C26.0104 8.06442 26.017 8.11776 26.0304 8.15442C26.047 8.18776 26.077 8.21109 26.1204 8.22442C26.167 8.23776 26.237 8.24442 26.3304 8.24442V8.40942H25.4454V8.06442H25.4404C25.1304 8.33109 24.8387 8.46442 24.5654 8.46442C24.352 8.46442 24.1887 8.40442 24.0754 8.28442C23.9654 8.16442 23.9104 7.98942 23.9104 7.75942V6.51942C23.9104 6.42609 23.9004 6.36442 23.8804 6.33442C23.8604 6.30442 23.8204 6.28942 23.7604 6.28942H23.6104V6.12442L24.3404 6.03442H24.4854V7.61442C24.4854 7.78109 24.522 7.91109 24.5954 8.00442C24.672 8.09442 24.7804 8.13942 24.9204 8.13942C25.007 8.13942 25.0954 8.11276 25.1854 8.05942C25.2787 8.00276 25.3604 7.93776 25.4304 7.86442V6.51942C25.4304 6.42609 25.4204 6.36442 25.4004 6.33442C25.3837 6.30442 25.3454 6.28942 25.2854 6.28942H25.1354V6.12442L25.8654 6.03442H26.0104V7.99442ZM28.0854 6.00442C28.2287 6.00442 28.3337 6.04609 28.4004 6.12942C28.4704 6.20942 28.5054 6.30776 28.5054 6.42442C28.5054 6.53442 28.4771 6.62109 28.4204 6.68442C28.3637 6.74442 28.2837 6.77442 28.1804 6.77442C28.0904 6.77442 28.0187 6.75109 27.9654 6.70442C27.9154 6.65776 27.8904 6.59276 27.8904 6.50942C27.8904 6.45942 27.8971 6.41942 27.9104 6.38942C27.9271 6.35942 27.9471 6.33109 27.9704 6.30442C27.9971 6.27776 28.0104 6.25942 28.0104 6.24942C28.0104 6.23609 28.0054 6.22442 27.9954 6.21442C27.9854 6.20442 27.9687 6.19942 27.9454 6.19942C27.8854 6.19942 27.8187 6.23776 27.7454 6.31442C27.6721 6.39109 27.6087 6.49442 27.5554 6.62442C27.5021 6.75109 27.4754 6.88776 27.4754 7.03442V7.99442C27.4754 8.06776 27.4837 8.12109 27.5004 8.15442C27.5204 8.18776 27.5587 8.21109 27.6154 8.22442C27.6721 8.23776 27.7637 8.24442 27.8904 8.24442V8.40942H26.5704V8.24442C26.6704 8.24442 26.7421 8.23776 26.7854 8.22442C26.8287 8.20776 26.8571 8.18276 26.8704 8.14942C26.8837 8.11609 26.8904 8.06442 26.8904 7.99442V6.54942C26.8904 6.45942 26.8804 6.39942 26.8604 6.36942C26.8404 6.33609 26.8037 6.31942 26.7504 6.31942H26.6004V6.14942L27.3204 6.03442H27.4604V6.46942H27.4704C27.6171 6.15942 27.8221 6.00442 28.0854 6.00442ZM28.7086 8.24442C28.8086 8.24442 28.8803 8.23776 28.9236 8.22442C28.9669 8.20776 28.9953 8.18276 29.0086 8.14942C29.0219 8.11609 29.0286 8.06442 29.0286 7.99442V6.54942C29.0286 6.45609 29.0186 6.39442 28.9986 6.36442C28.9819 6.33442 28.9453 6.31942 28.8886 6.31942H28.7386V6.14942L29.4686 6.03442H29.6136V7.99442C29.6136 8.06776 29.6203 8.12109 29.6336 8.15442C29.6469 8.18776 29.6753 8.21109 29.7186 8.22442C29.7619 8.23776 29.8336 8.24442 29.9336 8.24442V8.40942H28.7086V8.24442ZM29.2436 4.75442C29.2736 4.68776 29.3069 4.64109 29.3436 4.61442C29.3836 4.58776 29.4286 4.57442 29.4786 4.57442C29.5419 4.57442 29.5969 4.59609 29.6436 4.63942C29.6903 4.68276 29.7136 4.73442 29.7136 4.79442C29.7136 4.83109 29.7053 4.86609 29.6886 4.89942C29.6753 4.92942 29.6436 4.97442 29.5936 5.03442L29.0736 5.59942H28.8536L29.2436 4.75442ZM32.7889 8.24442V8.40942H31.9439L31.9139 8.19442C31.8072 8.27109 31.6856 8.33609 31.5489 8.38942C31.4122 8.43942 31.2722 8.46442 31.1289 8.46442C30.8422 8.46442 30.6206 8.36109 30.4639 8.15442C30.3072 7.94776 30.2289 7.65776 30.2289 7.28442C30.2289 6.85776 30.3306 6.53942 30.5339 6.32942C30.7406 6.11609 31.0322 6.00942 31.4089 6.00942C31.5056 6.00942 31.5872 6.01609 31.6539 6.02942C31.7206 6.04276 31.7989 6.06276 31.8889 6.08942H31.8939V5.47442C31.8939 5.38442 31.8839 5.32276 31.8639 5.28942C31.8472 5.25609 31.8089 5.23942 31.7489 5.23942H31.5989V5.07942L32.3239 4.95942H32.4689V7.99442C32.4689 8.09442 32.4889 8.16109 32.5289 8.19442C32.5689 8.22776 32.6372 8.24442 32.7339 8.24442H32.7889ZM30.8439 7.16942C30.8439 7.81609 31.0439 8.13942 31.4439 8.13942C31.5206 8.13942 31.5872 8.12609 31.6439 8.09942C31.7039 8.07276 31.7872 8.02109 31.8939 7.94442V6.33942C31.7739 6.25276 31.6322 6.20942 31.4689 6.20942C31.2622 6.20942 31.1056 6.28776 30.9989 6.44442C30.8956 6.59776 30.8439 6.83942 30.8439 7.16942ZM33.6101 5.69942C33.5135 5.69942 33.4351 5.66942 33.3751 5.60942C33.3151 5.54609 33.2851 5.46776 33.2851 5.37442C33.2851 5.28109 33.3151 5.20276 33.3751 5.13942C33.4351 5.07609 33.5135 5.04442 33.6101 5.04442C33.7101 5.04442 33.7901 5.07609 33.8501 5.13942C33.9101 5.20276 33.9401 5.28109 33.9401 5.37442C33.9401 5.46776 33.9085 5.54609 33.8451 5.60942C33.7818 5.66942 33.7035 5.69942 33.6101 5.69942ZM33.0151 8.24442C33.1151 8.24442 33.1868 8.23776 33.2301 8.22442C33.2735 8.20776 33.3018 8.18276 33.3151 8.14942C33.3285 8.11609 33.3351 8.06442 33.3351 7.99442V6.54942C33.3351 6.45609 33.3251 6.39442 33.3051 6.36442C33.2885 6.33442 33.2518 6.31942 33.1951 6.31942H33.0451V6.14942L33.7801 6.03442H33.9201V7.99442C33.9201 8.06776 33.9268 8.12109 33.9401 8.15442C33.9535 8.18776 33.9818 8.21109 34.0251 8.22442C34.0685 8.23776 34.1401 8.24442 34.2401 8.24442V8.40942H33.0151V8.24442ZM35.7236 8.45942C35.3702 8.45942 35.0986 8.36109 34.9086 8.16442C34.7219 7.96442 34.6286 7.66276 34.6286 7.25942C34.6286 6.84276 34.7269 6.53109 34.9236 6.32442C35.1202 6.11442 35.4036 6.00942 35.7736 6.00942C35.9802 6.00942 36.1519 6.03942 36.2886 6.09942C36.4252 6.15942 36.5252 6.23776 36.5886 6.33442C36.6519 6.42776 36.6836 6.52942 36.6836 6.63942C36.6836 6.73942 36.6569 6.81776 36.6036 6.87442C36.5536 6.93109 36.4836 6.95942 36.3936 6.95942C36.3036 6.95942 36.2336 6.93276 36.1836 6.87942C36.1369 6.82609 36.1136 6.75776 36.1136 6.67442C36.1136 6.62442 36.1202 6.58276 36.1336 6.54942C36.1502 6.51609 36.1602 6.49609 36.1636 6.48942C36.1869 6.44942 36.1986 6.41609 36.1986 6.38942C36.1986 6.33609 36.1686 6.29276 36.1086 6.25942C36.0486 6.22609 35.9619 6.20942 35.8486 6.20942C35.6519 6.20942 35.5019 6.27609 35.3986 6.40942C35.2952 6.54276 35.2436 6.78442 35.2436 7.13442C35.2436 7.47776 35.2986 7.73276 35.4086 7.89942C35.5186 8.06609 35.6886 8.14942 35.9186 8.14942C36.1086 8.14942 36.2502 8.10609 36.3436 8.01942C36.4402 7.93276 36.5219 7.82276 36.5886 7.68942L36.7136 7.76442C36.6369 7.99109 36.5219 8.16442 36.3686 8.28442C36.2186 8.40109 36.0036 8.45942 35.7236 8.45942ZM39.3943 8.30442C39.3209 8.34776 39.2409 8.38442 39.1543 8.41442C39.0709 8.44442 38.9659 8.45942 38.8393 8.45942C38.7026 8.45942 38.6043 8.43776 38.5443 8.39442C38.4876 8.35109 38.4593 8.26109 38.4593 8.12442C38.3459 8.22442 38.2293 8.30609 38.1093 8.36942C37.9893 8.42942 37.8559 8.45942 37.7093 8.45942C37.5293 8.45942 37.3809 8.41609 37.2643 8.32942C37.1476 8.24276 37.0893 8.11942 37.0893 7.95942C37.0893 7.73276 37.2093 7.53442 37.4493 7.36442C37.6926 7.19109 38.0293 7.06609 38.4593 6.98942V6.68442C38.4559 6.54442 38.4193 6.43942 38.3493 6.36942C38.2826 6.29942 38.1643 6.26442 37.9943 6.26442C37.9009 6.26442 37.8193 6.27942 37.7493 6.30942C37.6826 6.33609 37.6493 6.36442 37.6493 6.39442C37.6493 6.42442 37.6693 6.45942 37.7093 6.49942C37.7359 6.52942 37.7559 6.55609 37.7693 6.57942C37.7826 6.60276 37.7893 6.63442 37.7893 6.67442C37.7893 6.75776 37.7643 6.82442 37.7143 6.87442C37.6643 6.92109 37.5976 6.94442 37.5143 6.94442C37.4276 6.94442 37.3576 6.91776 37.3043 6.86442C37.2509 6.81109 37.2243 6.74109 37.2243 6.65442C37.2243 6.54442 37.2643 6.44109 37.3443 6.34442C37.4276 6.24776 37.5459 6.17109 37.6993 6.11442C37.8559 6.05442 38.0393 6.02442 38.2493 6.02442C38.5159 6.02442 38.7109 6.07942 38.8343 6.18942C38.9609 6.29942 39.0243 6.48942 39.0243 6.75942V7.86942C39.0243 7.99942 39.0376 8.08942 39.0643 8.13942C39.0943 8.18609 39.1409 8.20942 39.2043 8.20942C39.2376 8.20942 39.2676 8.20442 39.2943 8.19442C39.3209 8.18109 39.3376 8.17276 39.3443 8.16942L39.3943 8.30442ZM37.6543 7.78442C37.6543 7.99442 37.7776 8.09942 38.0243 8.09942C38.1609 8.09942 38.3059 8.03776 38.4593 7.91442V7.18442C38.1826 7.24442 37.9793 7.32276 37.8493 7.41942C37.7193 7.51276 37.6543 7.63442 37.6543 7.78442ZM21.6253 13.2444C21.7486 13.2444 21.8369 13.2378 21.8903 13.2244C21.9436 13.2078 21.9786 13.1811 21.9953 13.1444C22.0119 13.1078 22.0203 13.0478 22.0203 12.9644V10.5644C22.0203 10.4778 22.0119 10.4161 21.9953 10.3794C21.9786 10.3394 21.9436 10.3128 21.8903 10.2994C21.8369 10.2828 21.7486 10.2744 21.6253 10.2744V10.1094H23.0203V10.2744C22.8969 10.2744 22.8086 10.2828 22.7553 10.2994C22.7019 10.3128 22.6669 10.3394 22.6503 10.3794C22.6369 10.4161 22.6303 10.4778 22.6303 10.5644V12.9644C22.6303 13.0478 22.6386 13.1094 22.6553 13.1494C22.6719 13.1861 22.7069 13.2111 22.7603 13.2244C22.8136 13.2378 22.9003 13.2444 23.0203 13.2444V13.4094H21.6253V13.2444ZM25.7924 12.9944C25.7924 13.0644 25.799 13.1178 25.8124 13.1544C25.829 13.1878 25.8607 13.2111 25.9074 13.2244C25.954 13.2378 26.0257 13.2444 26.1224 13.2444V13.4094H24.9274V13.2444C25.0174 13.2444 25.0807 13.2411 25.1174 13.2344C25.154 13.2244 25.179 13.2044 25.1924 13.1744C25.209 13.1444 25.2174 13.0928 25.2174 13.0194V11.8194C25.2174 11.6628 25.179 11.5428 25.1024 11.4594C25.029 11.3761 24.924 11.3344 24.7874 11.3344C24.604 11.3344 24.4307 11.4128 24.2674 11.5694V13.0194C24.2674 13.0928 24.274 13.1444 24.2874 13.1744C24.304 13.2044 24.3307 13.2244 24.3674 13.2344C24.404 13.2411 24.464 13.2444 24.5474 13.2444V13.4094H23.3624V13.2444C23.4624 13.2444 23.534 13.2378 23.5774 13.2244C23.6207 13.2111 23.649 13.1878 23.6624 13.1544C23.6757 13.1211 23.6824 13.0678 23.6824 12.9944V11.5494C23.6824 11.4594 23.6724 11.3994 23.6524 11.3694C23.6324 11.3361 23.5957 11.3194 23.5424 11.3194H23.3924V11.1494L24.1124 11.0344H24.2524V11.3644H24.2574C24.3974 11.2444 24.5424 11.1561 24.6924 11.0994C24.8424 11.0394 24.9857 11.0094 25.1224 11.0094C25.3324 11.0094 25.4957 11.0744 25.6124 11.2044C25.7324 11.3311 25.7924 11.5111 25.7924 11.7444V12.9944ZM27.1496 13.4644C26.9663 13.4644 26.8229 13.4144 26.7196 13.3144C26.6163 13.2111 26.5646 13.0661 26.5646 12.8794V11.2594H26.2696V11.0944C26.4429 11.0411 26.5813 10.9494 26.6846 10.8194C26.7879 10.6861 26.8696 10.5044 26.9296 10.2744H27.1396V11.0594H27.6746V11.2594H27.1396V12.7044C27.1396 12.8544 27.1679 12.9661 27.2246 13.0394C27.2813 13.1128 27.3696 13.1494 27.4896 13.1494C27.5796 13.1494 27.6629 13.1328 27.7396 13.0994L27.7946 13.2244C27.6713 13.3044 27.5646 13.3644 27.4746 13.4044C27.3879 13.4444 27.2796 13.4644 27.1496 13.4644ZM30.1566 12.2644H28.6566C28.6666 12.5511 28.7216 12.7694 28.8216 12.9194C28.9216 13.0694 29.09 13.1444 29.3266 13.1444C29.49 13.1444 29.625 13.1078 29.7316 13.0344C29.8383 12.9578 29.9233 12.8444 29.9866 12.6944L30.1416 12.7844C30.0583 12.9878 29.9416 13.1511 29.7916 13.2744C29.6416 13.3978 29.4166 13.4594 29.1166 13.4594C28.4 13.4594 28.0416 13.0544 28.0416 12.2444C28.0416 11.8344 28.1316 11.5261 28.3116 11.3194C28.495 11.1128 28.7616 11.0094 29.1116 11.0094C29.4783 11.0094 29.7433 11.1161 29.9066 11.3294C30.0733 11.5428 30.1566 11.8328 30.1566 12.1994V12.2644ZM29.5466 12.0644C29.5466 11.7678 29.52 11.5511 29.4666 11.4144C29.4133 11.2778 29.3016 11.2094 29.1316 11.2094C28.9683 11.2094 28.8483 11.2778 28.7716 11.4144C28.6983 11.5511 28.6583 11.7678 28.6516 12.0644H29.5466ZM32.7546 11.0094C32.8646 11.0094 32.9563 11.0378 33.0296 11.0944C33.103 11.1511 33.1396 11.2344 33.1396 11.3444C33.1396 11.4211 33.1213 11.4828 33.0846 11.5294C33.048 11.5761 32.993 11.5994 32.9196 11.5994C32.853 11.5994 32.8013 11.5828 32.7646 11.5494C32.7313 11.5161 32.7146 11.4761 32.7146 11.4294C32.7146 11.3961 32.718 11.3694 32.7246 11.3494C32.7313 11.3261 32.7346 11.3078 32.7346 11.2944C32.7346 11.2811 32.728 11.2678 32.7146 11.2544C32.7013 11.2411 32.6746 11.2344 32.6346 11.2344C32.558 11.2344 32.493 11.2711 32.4396 11.3444C32.5363 11.4744 32.5846 11.6278 32.5846 11.8044C32.5846 12.0711 32.4896 12.2678 32.2996 12.3944C32.1096 12.5178 31.873 12.5794 31.5896 12.5794C31.473 12.5794 31.3613 12.5694 31.2546 12.5494C31.178 12.6094 31.1396 12.6628 31.1396 12.7094C31.1396 12.7494 31.1663 12.7861 31.2196 12.8194C31.273 12.8494 31.3546 12.8644 31.4646 12.8644H31.9196C32.2096 12.8644 32.433 12.9278 32.5896 13.0544C32.7463 13.1778 32.8246 13.3561 32.8246 13.5894C32.8246 13.8794 32.7096 14.0978 32.4796 14.2444C32.2496 14.3944 31.958 14.4694 31.6046 14.4694C31.2913 14.4694 31.0346 14.4128 30.8346 14.2994C30.638 14.1861 30.5396 14.0211 30.5396 13.8044C30.5396 13.6878 30.573 13.5911 30.6396 13.5144C30.7096 13.4411 30.8263 13.3794 30.9896 13.3294C30.8863 13.2928 30.8046 13.2411 30.7446 13.1744C30.688 13.1078 30.6596 13.0328 30.6596 12.9494C30.6596 12.7794 30.7896 12.6261 31.0496 12.4894C30.7396 12.3628 30.5846 12.1378 30.5846 11.8144C30.5846 11.5411 30.6863 11.3411 30.8896 11.2144C31.093 11.0844 31.333 11.0194 31.6096 11.0194C31.7496 11.0194 31.8813 11.0378 32.0046 11.0744C32.1313 11.1078 32.2396 11.1611 32.3296 11.2344C32.4363 11.0844 32.578 11.0094 32.7546 11.0094ZM31.5996 12.3794C31.743 12.3794 31.8513 12.3278 31.9246 12.2244C31.998 12.1178 32.0346 11.9694 32.0346 11.7794C32.0346 11.5961 32.0063 11.4578 31.9496 11.3644C31.893 11.2711 31.783 11.2244 31.6196 11.2244C31.453 11.2244 31.3396 11.2728 31.2796 11.3694C31.2196 11.4661 31.1896 11.6111 31.1896 11.8044C31.1896 11.9944 31.218 12.1378 31.2746 12.2344C31.3313 12.3311 31.4396 12.3794 31.5996 12.3794ZM32.3546 13.7794C32.3546 13.6394 32.298 13.5361 32.1846 13.4694C32.0713 13.4061 31.8963 13.3744 31.6596 13.3744H31.3346C31.1546 13.4444 31.0646 13.5711 31.0646 13.7544C31.0646 13.9078 31.1263 14.0328 31.2496 14.1294C31.373 14.2261 31.528 14.2744 31.7146 14.2744C31.8913 14.2744 32.0413 14.2311 32.1646 14.1444C32.2913 14.0578 32.3546 13.9361 32.3546 13.7794ZM34.7504 11.0044C34.8938 11.0044 34.9988 11.0461 35.0654 11.1294C35.1354 11.2094 35.1704 11.3078 35.1704 11.4244C35.1704 11.5344 35.1421 11.6211 35.0854 11.6844C35.0288 11.7444 34.9488 11.7744 34.8454 11.7744C34.7554 11.7744 34.6838 11.7511 34.6304 11.7044C34.5804 11.6578 34.5554 11.5928 34.5554 11.5094C34.5554 11.4594 34.5621 11.4194 34.5754 11.3894C34.5921 11.3594 34.6121 11.3311 34.6354 11.3044C34.6621 11.2778 34.6754 11.2594 34.6754 11.2494C34.6754 11.2361 34.6704 11.2244 34.6604 11.2144C34.6504 11.2044 34.6338 11.1994 34.6104 11.1994C34.5504 11.1994 34.4838 11.2378 34.4104 11.3144C34.3371 11.3911 34.2738 11.4944 34.2204 11.6244C34.1671 11.7511 34.1404 11.8878 34.1404 12.0344V12.9944C34.1404 13.0678 34.1488 13.1211 34.1654 13.1544C34.1854 13.1878 34.2238 13.2111 34.2804 13.2244C34.3371 13.2378 34.4288 13.2444 34.5554 13.2444V13.4094H33.2354V13.2444C33.3354 13.2444 33.4071 13.2378 33.4504 13.2244C33.4938 13.2078 33.5221 13.1828 33.5354 13.1494C33.5488 13.1161 33.5554 13.0644 33.5554 12.9944V11.5494C33.5554 11.4594 33.5454 11.3994 33.5254 11.3694C33.5054 11.3361 33.4688 11.3194 33.4154 11.3194H33.2654V11.1494L33.9854 11.0344H34.1254V11.4694H34.1354C34.2821 11.1594 34.4871 11.0044 34.7504 11.0044ZM37.7536 13.3044C37.6803 13.3478 37.6003 13.3844 37.5136 13.4144C37.4303 13.4444 37.3253 13.4594 37.1986 13.4594C37.062 13.4594 36.9636 13.4378 36.9036 13.3944C36.847 13.3511 36.8186 13.2611 36.8186 13.1244C36.7053 13.2244 36.5886 13.3061 36.4686 13.3694C36.3486 13.4294 36.2153 13.4594 36.0686 13.4594C35.8886 13.4594 35.7403 13.4161 35.6236 13.3294C35.507 13.2428 35.4486 13.1194 35.4486 12.9594C35.4486 12.7328 35.5686 12.5344 35.8086 12.3644C36.052 12.1911 36.3886 12.0661 36.8186 11.9894V11.6844C36.8153 11.5444 36.7786 11.4394 36.7086 11.3694C36.642 11.2994 36.5236 11.2644 36.3536 11.2644C36.2603 11.2644 36.1786 11.2794 36.1086 11.3094C36.042 11.3361 36.0086 11.3644 36.0086 11.3944C36.0086 11.4244 36.0286 11.4594 36.0686 11.4994C36.0953 11.5294 36.1153 11.5561 36.1286 11.5794C36.142 11.6028 36.1486 11.6344 36.1486 11.6744C36.1486 11.7578 36.1236 11.8244 36.0736 11.8744C36.0236 11.9211 35.957 11.9444 35.8736 11.9444C35.787 11.9444 35.717 11.9178 35.6636 11.8644C35.6103 11.8111 35.5836 11.7411 35.5836 11.6544C35.5836 11.5444 35.6236 11.4411 35.7036 11.3444C35.787 11.2478 35.9053 11.1711 36.0586 11.1144C36.2153 11.0544 36.3986 11.0244 36.6086 11.0244C36.8753 11.0244 37.0703 11.0794 37.1936 11.1894C37.3203 11.2994 37.3836 11.4894 37.3836 11.7594V12.8694C37.3836 12.9994 37.397 13.0894 37.4236 13.1394C37.4536 13.1861 37.5003 13.2094 37.5636 13.2094C37.597 13.2094 37.627 13.2044 37.6536 13.1944C37.6803 13.1811 37.697 13.1728 37.7036 13.1694L37.7536 13.3044ZM36.0136 12.7844C36.0136 12.9944 36.137 13.0994 36.3836 13.0994C36.5203 13.0994 36.6653 13.0378 36.8186 12.9144V12.1844C36.542 12.2444 36.3386 12.3228 36.2086 12.4194C36.0786 12.5128 36.0136 12.6344 36.0136 12.7844ZM37.9072 13.2444C38.0072 13.2444 38.0789 13.2378 38.1222 13.2244C38.1689 13.2078 38.1989 13.1828 38.2122 13.1494C38.2256 13.1161 38.2322 13.0644 38.2322 12.9944V10.4794C38.2322 10.3861 38.2222 10.3244 38.2022 10.2944C38.1822 10.2611 38.1439 10.2444 38.0872 10.2444H37.9372V10.0744L38.6722 9.95942H38.8122V12.9944C38.8122 13.0644 38.8189 13.1178 38.8322 13.1544C38.8489 13.1878 38.8789 13.2111 38.9222 13.2244C38.9689 13.2378 39.0389 13.2444 39.1322 13.2444V13.4094H37.9072V13.2444Z" fill="white"/>
</svg>
